<?xml version="1.0" encoding="UTF-8" standalone="no"?>
<!DOCTYPE svg PUBLIC "-//W3C//DTD SVG 1.1//EN"
 "http://www.w3.org/Graphics/SVG/1.1/DTD/svg11.dtd">
<!-- Generated by graphviz version 2.29.20121220.0545 (20121220.0545)
 -->
<!-- Title: G Pages: 1 -->
<svg width="1100pt" height="10035pt"
 viewBox="0.00 0.00 1100.00 10035.48" xmlns="http://www.w3.org/2000/svg" xmlns:xlink="http://www.w3.org/1999/xlink">
<g id="graph0" class="graph" transform="scale(1 1) rotate(0) translate(4 10031.5)">
<title>G</title>
<polygon fill="white" stroke="white" points="-4,5 -4,-10031.5 1097,-10031.5 1097,5 -4,5"/>
<g id="clust1" class="cluster"><title>cluster_global</title>
<path fill="none" stroke="gray" d="M20,-604.479C20,-604.479 1072,-604.479 1072,-604.479 1078,-604.479 1084,-610.479 1084,-616.479 1084,-616.479 1084,-10007.5 1084,-10007.5 1084,-10013.5 1078,-10019.5 1072,-10019.5 1072,-10019.5 20,-10019.5 20,-10019.5 14,-10019.5 8,-10013.5 8,-10007.5 8,-10007.5 8,-616.479 8,-616.479 8,-610.479 14,-604.479 20,-604.479"/>
<text text-anchor="middle" x="546" y="-10004.5" font-family="Times,serif" font-size="11.00" fill="gray">global</text>
</g>

</g>
</svg>